<svg width="195" height="63" viewBox="0 0 195 63" fill="none" xmlns="http://www.w3.org/2000/svg">
<path d="M81.7309 62H75.0059L78.4809 44.125H84.6059C88.9559 44.125 91.4559 46.175 91.4559 50.925C91.4559 57 87.3559 62 81.7309 62ZM77.6559 60H82.0559C86.2309 60 89.1809 55.925 89.1809 50.975C89.1809 48.075 88.1809 46.125 84.2059 46.125H80.3309L77.6559 60ZM95.6428 62.35C93.2178 62.35 91.8678 61.15 91.8678 59C91.8678 56.175 94.2428 55.225 97.5928 54.55C100.093 54.05 101.843 53.825 101.843 52.15C101.843 51.25 101.318 50.625 99.4178 50.625C97.2928 50.625 96.1678 51.4 95.6928 53.275H93.6428C94.2428 50.575 96.2428 48.875 99.5928 48.875C102.668 48.875 104.243 50.3 103.693 53.1L102.518 59.125C102.343 60.05 102.343 60.625 103.043 60.625C103.168 60.625 103.318 60.6 103.468 60.575L103.193 61.875C102.818 62.025 102.468 62.125 101.993 62.125C100.893 62.125 100.318 61.575 100.368 60.15H100.293C99.2178 61.5 97.6428 62.35 95.6428 62.35ZM96.2178 60.6C98.5428 60.6 100.518 59.275 100.993 56.9L101.368 55.05C100.818 55.575 100.343 55.675 98.3178 56.1C95.4178 56.7 93.9178 57.15 93.9178 58.8C93.9178 60.025 94.7178 60.6 96.2178 60.6ZM110.573 62.35C107.023 62.35 105.023 60.425 105.023 57.825H106.998C106.998 59.25 107.998 60.6 110.648 60.6C112.498 60.6 113.773 59.95 113.773 58.475C113.773 57.1 112.548 56.725 110.773 56.2C108.823 55.625 106.398 55.05 106.398 52.475C106.398 50 108.648 48.9 111.248 48.9C114.598 48.9 116.223 50.825 116.223 52.925H114.223C114.223 51.9 113.523 50.65 111.223 50.65C109.698 50.65 108.373 51.15 108.373 52.45C108.373 53.7 109.573 53.975 111.523 54.575C113.723 55.25 115.798 55.925 115.798 58.4C115.798 61 113.548 62.35 110.573 62.35ZM125.836 48.875C128.311 48.875 129.836 50.525 129.236 53.6L127.611 62H125.611L127.236 53.6C127.561 51.925 127.086 50.625 125.011 50.625C122.911 50.625 121.111 52.125 120.636 54L119.086 62H117.086L120.561 44.125H122.561L121.261 50.875C122.211 49.725 123.811 48.875 125.836 48.875ZM139.066 48.9C141.791 48.9 143.666 50.675 143.666 54.075C143.666 58.75 140.541 62.35 136.491 62.35C134.616 62.35 133.491 61.525 132.891 60.35H132.741L132.416 62H130.416L133.891 44.125H135.891L134.591 50.825H134.666C135.616 49.8 137.016 48.9 139.066 48.9ZM136.666 60.6C139.416 60.6 141.641 57.9 141.641 54.25C141.641 52.25 140.966 50.65 138.566 50.65C135.766 50.65 133.541 53.625 133.541 56.95C133.541 59.275 134.641 60.6 136.666 60.6ZM149.852 62.35C146.677 62.35 144.927 60.325 144.927 57.325C144.927 52.775 148.127 48.9 152.677 48.9C155.852 48.9 157.602 50.925 157.602 53.925C157.602 58.475 154.402 62.35 149.852 62.35ZM150.127 60.6C153.427 60.6 155.577 57.425 155.577 54.125C155.577 52.125 154.577 50.65 152.402 50.65C149.102 50.65 146.952 53.825 146.952 57.125C146.952 59.125 147.952 60.6 150.127 60.6ZM162.244 62.35C159.819 62.35 158.469 61.15 158.469 59C158.469 56.175 160.844 55.225 164.194 54.55C166.694 54.05 168.444 53.825 168.444 52.15C168.444 51.25 167.919 50.625 166.019 50.625C163.894 50.625 162.769 51.4 162.294 53.275H160.244C160.844 50.575 162.844 48.875 166.194 48.875C169.269 48.875 170.844 50.3 170.294 53.1L169.119 59.125C168.944 60.05 168.944 60.625 169.644 60.625C169.769 60.625 169.919 60.6 170.069 60.575L169.794 61.875C169.419 62.025 169.069 62.125 168.594 62.125C167.494 62.125 166.919 61.575 166.969 60.15H166.894C165.819 61.5 164.244 62.35 162.244 62.35ZM162.819 60.6C165.144 60.6 167.119 59.275 167.594 56.9L167.969 55.05C167.419 55.575 166.944 55.675 164.919 56.1C162.019 56.7 160.519 57.15 160.519 58.8C160.519 60.025 161.319 60.6 162.819 60.6ZM180.046 48.95C180.346 48.95 180.746 48.975 181.046 49.025L180.646 50.975C180.371 50.925 180.146 50.9 179.871 50.9C177.521 50.9 175.671 52.725 175.196 55.175L173.871 62H171.871L174.346 49.25H176.346L175.871 51.65H175.921C176.896 50 178.071 48.95 180.046 48.95ZM191.057 50.9L192.382 44.125H194.382L190.907 62H188.907L189.207 60.425H189.157C188.207 61.45 186.807 62.35 184.757 62.35C182.032 62.35 180.157 60.575 180.157 57.175C180.157 52.5 183.282 48.9 187.332 48.9C189.207 48.9 190.332 49.725 190.932 50.9H191.057ZM185.257 60.6C187.507 60.6 189.382 58.7 190.032 56.225L190.232 55.225C190.257 54.925 190.282 54.6 190.282 54.3C190.282 51.975 189.182 50.65 187.157 50.65C184.407 50.65 182.182 53.35 182.182 57C182.182 59 182.857 60.6 185.257 60.6Z" fill="black"/>
<path d="M33.8888 33.4005C30.0684 37.1402 25.3654 38.9888 19.822 38.9888C14.2363 38.9888 9.53319 37.1402 5.7529 33.4005C1.89014 29.6609 0 25.0426 0 19.4944C0 13.9463 1.89014 9.32575 5.71055 5.58831C9.53319 1.84865 14.2363 0 19.8198 0C25.4077 0 30.1108 1.84865 33.8888 5.58831C37.7115 9.32798 39.6016 13.9507 39.6016 19.4944C39.6016 25.0404 37.7115 29.6631 33.8888 33.4005ZM31.0358 19.4944C31.0358 16.1339 29.9436 13.2773 27.7994 10.8823C25.6596 8.48728 22.9715 7.30985 19.8198 7.30985C16.6725 7.30985 14.0245 8.48728 11.8424 10.8823C9.70259 13.2773 8.6104 16.1339 8.6104 19.4944C8.6104 22.855 9.70259 25.7116 11.8424 28.0642C13.9822 30.4168 16.6725 31.5943 19.822 31.5943C22.9715 31.5943 25.6172 30.4191 27.8016 28.0664C29.9414 25.754 31.0358 22.8974 31.0358 19.4944ZM52.4916 22.5606L59.1673 0.8407H67.9448L74.5804 22.5606L82.0964 0.8407H91.2106L78.0665 38.5696H71.8076L63.5382 12.3518L55.3491 38.5696H49.0925L35.9484 0.883069H45.0603L52.4916 22.5606ZM121.446 33.4005C117.624 37.1402 112.92 38.9888 107.377 38.9888C101.794 38.9888 97.0883 37.1402 93.3102 33.4005C89.4876 29.6609 87.5974 25.0404 87.5974 19.4944C87.5974 13.9485 89.4876 9.32575 93.3102 5.58831C97.0905 1.84865 101.796 0 107.379 0C112.963 0 117.668 1.84865 121.448 5.58831C125.269 9.32798 127.159 13.9507 127.159 19.4944C127.159 25.0404 125.267 29.6631 121.446 33.4005ZM118.593 19.4944C118.593 16.1339 117.501 13.2773 115.359 10.8823C113.219 8.48728 110.529 7.30985 107.379 7.30985C104.23 7.30985 101.584 8.48728 99.3997 10.8823C97.2599 13.2773 96.1677 16.1339 96.1677 19.4944C96.1677 22.855 97.2599 25.7116 99.3997 28.0642C101.542 30.4168 104.23 31.5943 107.379 31.5943C110.529 31.5943 113.175 30.4191 115.359 28.0664C117.499 25.754 118.593 22.8974 118.593 19.4944ZM140.049 22.5606L146.731 0.8407H155.509L162.142 22.5606L169.66 0.8407H178.772L165.586 38.5696H159.329L151.053 12.3518L142.864 38.5696H136.607L123.506 0.883069H132.618L140.049 22.5606ZM173.106 33.0527C173.106 36.469 175.725 39 179.04 39C182.383 39 185 36.469 185 33.0527C185 29.6341 182.381 27.1031 179.04 27.1031C175.725 27.1031 173.106 29.6341 173.106 33.0527ZM183.828 33.0527C183.828 35.9293 181.784 37.9921 179.04 37.9921C176.323 37.9921 174.279 35.9271 174.279 33.0527C174.279 30.176 176.323 28.111 179.04 28.111C181.781 28.111 183.828 30.176 183.828 33.0527ZM176.548 29.7568V36.2973H178.193V33.9848H178.817C179.909 33.9848 179.976 34.9593 180.025 35.6528C180.047 35.9561 180.063 36.2058 180.163 36.2973H181.835V36.2237C181.715 36.1835 181.686 35.9048 181.648 35.5324C181.57 34.7407 181.449 33.5299 180.31 33.347V33.3225C181.135 33.1263 181.708 32.5866 181.708 31.6745C181.708 30.4458 180.885 29.7568 179.314 29.7568H176.548ZM178.89 32.6825H178.193V30.9877H178.89C179.539 30.9877 180.139 31.1104 180.139 31.8217C180.139 32.5353 179.539 32.6825 178.89 32.6825Z" fill="black"/>
</svg>
